<svg width="580" height="585" viewBox="0 0 580 585" fill="none" xmlns="http://www.w3.org/2000/svg">
<g clip-path="url(#clip0_38045_193)">
<rect y="0.5" width="391" height="494" rx="12" fill="#F74F22"/>
<rect y="0.5" width="391" height="494" fill="#BABBC1"/>
</g>
<path d="M314 261C325.046 261 334 252.046 334 241V218.5C334 211.873 339.373 206.5 346 206.5H564C570.627 206.5 576 211.873 576 218.5V514C576 520.627 570.627 526 564 526H478.5C467.454 526 458.5 534.954 458.5 546V568.5C458.5 575.127 453.127 580.5 446.5 580.5H341.25H236C229.373 580.5 224 575.127 224 568.5V273C224 266.373 229.373 261 236 261H314Z" fill="#BABBC1" stroke="white" stroke-width="8"/>
<defs>
<clipPath id="clip0_38045_193">
<rect y="0.5" width="391" height="494" rx="12" fill="white"/>
</clipPath>
</defs>
</svg>
