<svg width="172" height="172" viewBox="0 0 172 172" fill="none" xmlns="http://www.w3.org/2000/svg">
<rect x="3" y="3" width="166" height="166" rx="83" fill="#C8F168"/>
<rect x="3" y="3" width="166" height="166" rx="83" stroke="white" stroke-width="6"/>
<rect x="46.5" y="46.5" width="79" height="79" rx="39.5" stroke="#111111"/>
<rect x="62" y="62" width="48" height="48" rx="24" fill="#111111"/>
<path d="M91 81L81 91M91 81H82M91 81V90" stroke="white" stroke-width="2" stroke-linecap="round" stroke-linejoin="round"/>
<path d="M82.5683 141.806L81.3347 152.036L77.1887 151.536C75.6744 151.353 74.6004 150.815 73.9667 149.922C73.3318 149.04 73.1261 147.672 73.3495 145.819C73.5602 144.071 74.0748 142.834 74.8933 142.105C75.7104 141.387 76.8868 141.121 78.4223 141.306L82.5683 141.806ZM80.6759 142.931L78.5315 142.673C77.8643 142.592 77.2969 142.62 76.8291 142.757C76.36 142.905 75.9818 143.235 75.6942 143.749C75.4067 144.262 75.2023 145.022 75.081 146.028C74.9597 147.034 74.9664 147.824 75.1012 148.399C75.236 148.974 75.5124 149.4 75.9304 149.676C76.3377 149.95 76.9015 150.131 77.6216 150.218L79.7661 150.477L80.6759 142.931Z" fill="#111111"/>
<path d="M68.0339 138.671C69.3319 139.094 70.1794 139.73 70.5763 140.577C70.963 141.421 70.9597 142.447 70.5662 143.654C70.1728 144.86 69.566 145.689 68.746 146.14C67.9259 146.59 66.8719 146.606 65.5839 146.186C64.2858 145.763 63.4383 145.127 63.0415 144.28C62.6446 143.433 62.6429 142.405 63.0363 141.199C63.4298 139.992 64.0365 139.163 64.8566 138.712C65.6665 138.258 66.7256 138.245 68.0339 138.671ZM67.5776 140.071C66.817 139.823 66.22 139.83 65.7866 140.093C65.3397 140.362 64.9807 140.913 64.7096 141.744C64.4385 142.576 64.4057 143.227 64.6112 143.698C64.8066 144.165 65.2845 144.523 66.0451 144.771C66.7956 145.016 67.3926 145.009 67.8361 144.749C68.2695 144.487 68.6218 143.94 68.8929 143.108C69.164 142.276 69.2036 141.622 69.0115 141.144C68.806 140.673 68.328 140.315 67.5776 140.071Z" fill="#111111"/>
<path d="M61.5563 136.244L57.8937 142.885L56.4926 142.112L56.8089 141.373C56.3812 141.441 55.9181 141.442 55.4196 141.374C54.9066 141.31 54.3978 141.139 53.8935 140.861C53.0342 140.387 52.5191 139.841 52.3483 139.223C52.1775 138.605 52.3265 137.871 52.7953 137.021L55.1675 132.72L56.6806 133.555L54.3471 137.786C54.0637 138.299 53.9728 138.718 54.0743 139.042C54.1665 139.361 54.5021 139.68 55.0812 140C55.4268 140.19 55.8064 140.308 56.2199 140.353C56.6241 140.394 57.0001 140.364 57.3479 140.263L60.0291 135.401L61.5563 136.244Z" fill="#111111"/>
<path d="M50.8103 129.096C51.1815 129.4 51.4739 129.75 51.6875 130.146C51.8928 130.535 51.9822 130.939 51.9555 131.358C51.9222 131.786 51.7432 132.198 51.4187 132.594C50.9589 133.155 50.4006 133.449 49.7439 133.476C49.0722 133.505 48.3362 133.191 47.536 132.536L45.655 130.994L45.442 131.254C45.2121 131.534 45.0749 131.794 45.0305 132.034C44.9777 132.266 45.0364 132.514 45.2066 132.778C45.3685 133.035 45.668 133.342 46.1053 133.701C46.7983 134.269 47.5304 134.696 48.3017 134.984L47.4802 135.986C47.1283 135.877 46.7356 135.7 46.302 135.455C45.8684 135.21 45.433 134.908 44.9957 134.55C44.1377 133.847 43.628 133.139 43.4665 132.428C43.2967 131.709 43.533 130.958 44.1753 130.174L47.2686 126.4L48.4195 127.343L48.0193 128.008C48.4479 127.973 48.8902 128.039 49.3464 128.206C49.7943 128.367 50.2823 128.663 50.8103 129.096ZM49.6603 129.767C49.2561 129.436 48.8514 129.214 48.4462 129.103C48.026 128.993 47.6264 128.976 47.2473 129.051L46.4055 130.078L48.2617 131.6C48.6577 131.924 49.0107 132.082 49.3207 132.074C49.6156 132.068 49.8916 131.908 50.1485 131.594C50.3987 131.289 50.4747 130.986 50.3767 130.685C50.2786 130.384 50.0398 130.078 49.6603 129.767Z" fill="#111111"/>
<path d="M43.3744 121.773C43.9131 122.378 44.1577 122.975 44.1082 123.561C44.0437 124.146 43.7324 124.687 43.1745 125.184L40.2094 127.82L40.9536 128.657L39.9374 129.561L39.1931 128.724L37.8899 129.883L36.347 128.943L38.0448 127.433L36.7051 125.926L37.7958 125.106L39.0611 126.529L41.9544 123.956C42.2812 123.665 42.4451 123.384 42.4459 123.112C42.4387 122.847 42.2828 122.544 41.978 122.201C41.7866 121.986 41.5447 121.794 41.2524 121.626L42.173 120.807C42.577 121.004 42.9774 121.326 43.3744 121.773Z" fill="#111111"/>
<path d="M38.3947 114.821C39.1079 115.934 39.386 116.972 39.2292 117.934C39.0723 118.896 38.4279 119.739 37.296 120.464C36.2719 121.119 35.2967 121.376 34.3702 121.235C33.4437 121.093 32.6411 120.493 31.9624 119.433C31.3413 118.463 31.1314 117.571 31.3329 116.758C31.5196 115.942 32.0127 115.278 32.8122 114.766L33.998 114.007L36.9917 118.683C37.5655 118.214 37.8484 117.716 37.8404 117.189C37.8324 116.662 37.5811 116.013 37.0865 115.24C36.8794 114.917 36.6352 114.604 36.3537 114.303C36.0723 114.002 35.8016 113.758 35.5418 113.569L36.6198 112.879C36.9296 113.086 37.2367 113.358 37.5412 113.695C37.8399 114.023 38.1244 114.398 38.3947 114.821ZM36.035 119.295L33.8695 115.913L33.4249 116.198C32.9847 116.479 32.721 116.819 32.6337 117.217C32.5375 117.621 32.6734 118.11 33.0415 118.685C33.4786 119.368 33.9288 119.744 34.392 119.815C34.8495 119.877 35.3972 119.703 36.035 119.295Z" fill="#111111"/>
<path d="M33.0318 103.812L23.0939 106.534L22.6881 105.052L28.5826 97.864L21.268 99.8674L20.8115 98.2008L30.7495 95.4789L31.1552 96.9603L25.272 104.129L32.5711 102.13L33.0318 103.812Z" fill="#111111"/>
<path d="M30.446 89.1795C30.5445 90.5412 30.2764 91.5659 29.6416 92.2535C29.0061 92.9304 28.0554 93.3147 26.7893 93.4062C25.5233 93.4978 24.5268 93.249 23.7997 92.6599C23.0727 92.0708 22.6603 91.1007 22.5626 89.7495C22.4641 88.3878 22.7322 87.3631 23.367 86.6755C24.0017 85.9879 24.9521 85.5984 26.2181 85.5068C27.4841 85.4153 28.4807 85.664 29.2077 86.2531C29.934 86.8316 30.3468 87.807 30.446 89.1795ZM28.9778 89.2856C28.9201 88.4877 28.6879 87.9377 28.281 87.6356C27.8628 87.3236 27.2174 87.1992 26.345 87.2622C25.4727 87.3253 24.8573 87.5409 24.4989 87.9091C24.1397 88.2666 23.989 88.8443 24.0467 89.6422C24.1036 90.4295 24.3359 90.9795 24.7435 91.2923C25.1504 91.5944 25.79 91.7139 26.6624 91.6508C27.5348 91.5877 28.1559 91.377 28.5257 91.0188C28.884 90.6506 29.0348 90.0729 28.9778 89.2856Z" fill="#111111"/>
<path d="M30.4112 80.6544L22.6326 81.6603L22.8574 79.9308L28.5005 79.3412L24.1386 77.2738L23.2183 77.1542L23.3895 75.8372L29.0758 74.9145L23.771 72.9019L23.9937 71.1883L31.2587 74.1333L31.0463 75.7675L25.9194 76.7308L30.6256 79.0043L30.4112 80.6544Z" fill="#111111"/>
<path d="M34.4178 64.6247L33.1651 64.0952L33.7382 62.7393L34.9909 63.2689L34.4178 64.6247Z" fill="#111111"/>
<path d="M40.0943 54.0382L31.9816 47.6855L34.5562 44.3976C35.4966 43.1967 36.5128 42.5563 37.6048 42.4767C38.6885 42.3904 39.9651 42.9227 41.4348 44.0735C42.8205 45.1586 43.6131 46.2399 43.8126 47.3173C44.0037 48.3882 43.6224 49.5325 42.6689 50.7503L40.0943 54.0382ZM40.1113 51.8365L41.443 50.1358C41.8573 49.6067 42.127 49.1066 42.252 48.6355C42.3687 48.1579 42.2819 47.6632 41.9917 47.1514C41.7015 46.6396 41.1574 46.0714 40.3596 45.4467C39.5618 44.8219 38.882 44.4183 38.3204 44.2359C37.7587 44.0535 37.2516 44.0696 36.799 44.2843C36.353 44.4905 35.9064 44.8792 35.4593 45.4502L34.1276 47.1509L40.1113 51.8365Z" fill="#111111"/>
<path d="M50.304 43.2269C49.2698 44.1182 48.2874 44.5143 47.3569 44.415C46.4345 44.3087 45.559 43.7748 44.7303 42.8133C43.9017 41.8518 43.5069 40.9036 43.546 39.9686C43.5851 39.0337 44.1178 38.124 45.1439 37.2397C46.1781 36.3483 47.1605 35.9523 48.091 36.0516C49.0214 36.1509 49.901 36.6813 50.7297 37.6428C51.5584 38.6043 51.9531 39.5525 51.914 40.4875C51.883 41.4154 51.3463 42.3286 50.304 43.2269ZM49.343 42.1119C49.949 41.5896 50.2519 41.0751 50.2517 40.5683C50.2526 40.0465 49.9675 39.4544 49.3965 38.7918C48.8255 38.1292 48.2853 37.764 47.7761 37.6959C47.2749 37.6209 46.7213 37.8445 46.1153 38.3668C45.5174 38.8821 45.2145 39.3966 45.2067 39.9104C45.2069 40.4171 45.4925 41.0018 46.0635 41.6643C46.6345 42.3269 47.1741 42.6997 47.6823 42.7828C48.1915 42.8508 48.7451 42.6272 49.343 42.1119Z" fill="#111111"/>
<path d="M55.7272 38.9548L51.9425 32.3827L53.3291 31.5842L53.7976 32.2376C53.9603 31.8361 54.1998 31.4398 54.516 31.0484C54.8362 30.6425 55.2458 30.2958 55.745 30.0084C56.5954 29.5186 57.3292 29.3607 57.9463 29.5346C58.5634 29.7086 59.1141 30.2161 59.5985 31.0572L62.0498 35.3139L60.5523 36.1762L58.141 31.9889C57.8482 31.4805 57.537 31.1858 57.2073 31.1049C56.8868 31.0187 56.44 31.1406 55.8669 31.4706C55.5249 31.6675 55.2275 31.9311 54.9745 32.2614C54.7309 32.5864 54.562 32.9237 54.4679 33.2733L57.2385 38.0845L55.7272 38.9548Z" fill="#111111"/>
<path d="M67.4135 33.4562C66.961 33.6162 66.5101 33.6851 66.061 33.6629C65.622 33.6372 65.2299 33.5043 64.8848 33.2643C64.5362 33.0142 64.2765 32.6479 64.1058 32.1652C63.8639 31.4813 63.9014 30.8515 64.2182 30.2756C64.5415 29.686 65.1908 29.2188 66.1663 28.8738L68.4591 28.0629L68.3471 27.7462C68.2262 27.4042 68.0748 27.1523 67.8931 26.9903C67.7214 26.8247 67.4788 26.7465 67.1652 26.7556C66.8616 26.7611 66.4434 26.8581 65.9104 27.0466C65.0657 27.3453 64.3207 27.7502 63.6755 28.2612L63.2434 27.0394C63.519 26.7948 63.8738 26.5506 64.308 26.3065C64.7421 26.0625 65.2257 25.8462 65.7586 25.6577C66.8045 25.2878 67.6736 25.218 68.366 25.4484C69.0685 25.6751 69.5887 26.2662 69.9265 27.2215L71.5536 31.8223L70.1508 32.3184L69.7891 31.6317C69.5971 32.0164 69.3115 32.3607 68.9324 32.6644C68.5634 32.9646 68.0571 33.2286 67.4135 33.4562ZM67.4348 32.1249C67.9276 31.9506 68.3265 31.719 68.6317 31.4301C68.9433 31.1275 69.165 30.7946 69.2967 30.4312L68.8539 29.1792L66.5912 29.9794C66.1085 30.1501 65.7903 30.3701 65.6367 30.6394C65.4895 30.8951 65.4835 31.214 65.6186 31.5962C65.7502 31.9683 65.9702 32.1903 66.2785 32.2623C66.5868 32.3343 66.9722 32.2885 67.4348 32.1249Z" fill="#111111"/>
<path d="M77.5226 30.8839C76.7254 31.031 76.0888 30.9316 75.6128 30.5856C75.1453 30.2272 74.8437 29.6809 74.7082 28.9466L73.9878 25.0446L72.8864 25.2479L72.6395 23.9105L73.7409 23.7072L73.4243 21.9921L75.0278 21.1592L75.4402 23.3935L77.4227 23.0275L77.5595 24.3852L75.6871 24.7309L76.39 28.5385C76.4694 28.9686 76.6252 29.2544 76.8575 29.3959C77.0877 29.5269 77.4284 29.5508 77.8795 29.4676C78.1627 29.4153 78.4519 29.3076 78.7473 29.1447L78.9709 30.3562C78.5928 30.5995 78.1101 30.7754 77.5226 30.8839Z" fill="#111111"/>
<path d="M86.0498 30.2275C84.7275 30.2608 83.6957 29.9613 82.9542 29.3292C82.2127 28.697 81.825 27.7091 81.7912 26.3655C81.7606 25.1499 82.0456 24.1824 82.6464 23.463C83.2471 22.7437 84.1766 22.3682 85.4349 22.3365C86.5865 22.3075 87.4579 22.5896 88.049 23.1829C88.6506 23.7653 88.9633 24.531 88.9872 25.48L89.0226 26.8876L83.4724 27.0274C83.5762 27.761 83.8556 28.2608 84.3104 28.5268C84.7652 28.7927 85.4512 28.9142 86.3682 28.8911C86.7521 28.8814 87.1457 28.8341 87.549 28.7493C87.9524 28.6644 88.3018 28.5596 88.5974 28.4348L88.6297 29.7144C88.2922 29.8723 87.9005 29.9942 87.4545 30.0801C87.0192 30.1657 86.5509 30.2149 86.0498 30.2275ZM83.4438 25.8917L87.4585 25.7906L87.4452 25.2628C87.4321 24.7403 87.2779 24.3387 86.9827 24.0581C86.6873 23.7667 86.1984 23.6297 85.5159 23.6469C84.7055 23.6673 84.1501 23.8573 83.8497 24.217C83.56 24.5764 83.4247 25.1346 83.4438 25.8917Z" fill="#111111"/>
<path d="M98.2467 31.3552L101.064 21.4439L102.542 21.864L105.639 30.629L107.713 23.334L109.375 23.8066L106.557 33.7178L105.08 33.2978L101.994 24.5526L99.9242 31.8321L98.2467 31.3552Z" fill="#111111"/>
<path d="M112.108 36.7132C110.892 36.0923 110.154 35.3323 109.895 34.4333C109.645 33.5391 109.808 32.5268 110.386 31.3963C110.963 30.2658 111.692 29.5421 112.572 29.2252C113.453 28.9083 114.496 29.0578 115.703 29.6739C116.919 30.2948 117.656 31.0548 117.916 31.9539C118.175 32.8529 118.016 33.8677 117.439 34.9981C116.862 36.1286 116.133 36.8523 115.253 37.1692C114.382 37.491 113.333 37.339 112.108 36.7132ZM112.777 35.4023C113.49 35.7661 114.081 35.8522 114.55 35.6606C115.033 35.4643 115.474 34.9767 115.872 34.1977C116.27 33.4187 116.404 32.7806 116.274 32.2834C116.155 31.791 115.738 31.3629 115.026 30.9991C114.323 30.6402 113.732 30.554 113.253 30.7408C112.784 30.9324 112.351 31.4177 111.953 32.1967C111.555 32.9757 111.414 33.6161 111.529 34.118C111.658 34.6152 112.074 35.0433 112.777 35.4023Z" fill="#111111"/>
<path d="M119.408 41.0972L122.576 33.9219L123.939 35.0098L121.521 40.1426L125.548 37.4817L126.127 36.7563L127.165 37.5847L125.01 42.9272L129.479 39.4311L130.829 40.509L124.548 45.1991L123.26 44.1711L125.091 39.2863L120.709 42.1351L119.408 41.0972Z" fill="#111111"/>
<path d="M131.045 52.8226L132.147 52.0252L133.01 53.2176L131.908 54.015L131.045 52.8226Z" fill="#111111"/>
<path d="M137.165 63.1559L146.801 59.5052L148.281 63.4103C148.821 64.8367 148.843 66.0377 148.345 67.0131C147.858 67.9848 146.741 68.8014 144.996 69.4627C143.35 70.0863 142.015 70.2044 140.989 69.8171C139.974 69.4261 139.193 68.5074 138.645 67.061L137.165 63.1559ZM139.04 64.3106L139.805 66.3305C140.043 66.9589 140.332 67.4486 140.67 67.7995C141.018 68.1466 141.486 68.3285 142.074 68.3453C142.662 68.362 143.43 68.1909 144.378 67.8318C145.326 67.4728 146.023 67.1003 146.47 66.7143C146.917 66.3282 147.165 65.886 147.216 65.3877C147.271 64.8994 147.169 64.3161 146.912 63.6378L146.147 61.6179L139.04 64.3106Z" fill="#111111"/>
<path d="M141.126 77.4929C140.899 76.1465 141.069 75.1011 141.635 74.3565C142.204 73.6224 143.114 73.1499 144.366 72.9389C145.617 72.7278 146.633 72.8811 147.413 73.3987C148.192 73.9163 148.695 74.8431 148.92 76.1789C149.147 77.5252 148.977 78.5707 148.41 79.3152C147.843 80.0598 146.934 80.5376 145.682 80.7486C144.431 80.9597 143.415 80.8064 142.636 80.2888C141.858 79.7817 141.355 78.8497 141.126 77.4929ZM142.577 77.2481C142.71 78.037 142.994 78.5626 143.427 78.8248C143.873 79.0958 144.527 79.1585 145.39 79.0131C146.252 78.8677 146.845 78.5948 147.166 78.1944C147.49 77.8045 147.586 77.2151 147.453 76.4262C147.321 75.6479 147.038 75.1223 146.603 74.8496C146.169 74.5874 145.521 74.529 144.658 74.6744C143.796 74.8198 143.198 75.0883 142.863 75.48C142.541 75.8804 142.446 76.4698 142.577 77.2481Z" fill="#111111"/>
<path d="M141.978 84.3414L149.561 84.507L149.526 86.1066L148.724 86.1691C148.983 86.5162 149.198 86.9263 149.369 87.3995C149.551 87.8836 149.635 88.4135 149.623 88.9894C149.601 89.9705 149.356 90.68 148.888 91.1179C148.42 91.5557 147.7 91.7641 146.73 91.7429L141.819 91.6357L141.857 89.9081L146.688 90.0136C147.274 90.0264 147.687 89.9127 147.927 89.6725C148.167 89.4431 148.294 88.9977 148.309 88.3366C148.317 87.942 148.246 87.551 148.094 87.1636C147.942 86.7869 147.741 86.4677 147.491 86.2062L141.94 86.085L141.978 84.3414Z" fill="#111111"/>
<path d="M140.627 97.1902C140.724 96.7202 140.898 96.2989 141.15 95.9262C141.399 95.5639 141.716 95.2973 142.1 95.1263C142.495 94.9576 142.942 94.9251 143.444 95.029C144.154 95.1763 144.673 95.5345 145.002 96.1037C145.339 96.6855 145.403 97.483 145.193 98.4961L144.699 100.878L145.028 100.946C145.383 101.019 145.677 101.02 145.91 100.949C146.14 100.888 146.333 100.721 146.487 100.448C146.64 100.185 146.773 99.777 146.888 99.2234C147.07 98.3461 147.109 97.4991 147.006 96.6825L148.275 96.9456C148.342 97.3079 148.367 97.738 148.351 98.2358C148.335 98.7336 148.27 99.2592 148.155 99.8128C147.93 100.899 147.539 101.679 146.984 102.152C146.426 102.635 145.651 102.774 144.659 102.569L139.88 101.578L140.182 100.121L140.957 100.167C140.727 99.8038 140.581 99.3812 140.517 98.8996C140.452 98.4285 140.488 97.8587 140.627 97.1902ZM141.754 97.8979C141.648 98.4097 141.64 98.8709 141.729 99.2815C141.826 99.7048 141.997 100.067 142.239 100.368L143.54 100.637L144.027 98.2872C144.131 97.7858 144.107 97.3997 143.956 97.1288C143.814 96.8705 143.544 96.7002 143.147 96.6179C142.761 96.5378 142.457 96.611 142.236 96.8375C142.014 97.0639 141.854 97.4174 141.754 97.8979Z" fill="#111111"/>
<path d="M137.599 107.177C137.885 106.419 138.3 105.926 138.843 105.698C139.391 105.484 140.015 105.508 140.713 105.773L144.424 107.177L144.821 106.13L146.093 106.611L145.696 107.658L147.327 108.276L147.21 110.079L145.085 109.275L144.371 111.16L143.139 110.574L143.813 108.793L140.191 107.423C139.782 107.268 139.457 107.253 139.216 107.379C138.985 107.508 138.788 107.787 138.625 108.216C138.523 108.485 138.466 108.788 138.452 109.126L137.3 108.69C137.288 108.24 137.387 107.736 137.599 107.177Z" fill="#111111"/>
<path d="M133.738 114.809C134.394 113.661 135.184 112.933 136.109 112.626C137.034 112.319 138.08 112.499 139.247 113.166C140.302 113.769 140.982 114.514 141.287 115.4C141.591 116.287 141.431 117.276 140.807 118.369C140.235 119.369 139.542 119.969 138.729 120.167C137.919 120.38 137.102 120.251 136.278 119.78L135.055 119.082L137.81 114.261C137.128 113.97 136.556 113.95 136.093 114.202C135.63 114.453 135.171 114.977 134.716 115.773C134.525 116.107 134.362 116.468 134.226 116.857C134.089 117.246 133.998 117.599 133.952 117.917L132.841 117.282C132.88 116.911 132.979 116.513 133.136 116.087C133.288 115.67 133.489 115.244 133.738 114.809ZM138.796 114.825L136.804 118.312L137.262 118.574C137.716 118.833 138.139 118.909 138.532 118.802C138.934 118.7 139.305 118.353 139.644 117.76C140.046 117.056 140.171 116.483 140.019 116.039C139.861 115.605 139.454 115.201 138.796 114.825Z" fill="#111111"/>
<path d="M126.472 124.659L133.492 132.201L132.367 133.248L123.265 131.359L128.432 136.91L127.167 138.088L120.147 130.545L121.271 129.499L130.351 131.387L125.195 125.847L126.472 124.659Z" fill="#111111"/>
<path d="M114.706 133.744C115.867 133.026 116.899 132.788 117.803 133.032C118.697 133.281 119.479 133.945 120.147 135.024C120.815 136.103 121.057 137.102 120.872 138.019C120.687 138.936 120.019 139.752 118.867 140.465C117.706 141.183 116.674 141.421 115.771 141.177C114.867 140.934 114.081 140.273 113.413 139.193C112.745 138.114 112.503 137.116 112.688 136.198C112.864 135.287 113.536 134.469 114.706 133.744ZM115.481 134.996C114.801 135.417 114.421 135.878 114.342 136.378C114.26 136.894 114.449 137.523 114.909 138.267C115.37 139.011 115.846 139.456 116.339 139.603C116.822 139.755 117.404 139.621 118.084 139.2C118.755 138.784 119.135 138.323 119.223 137.817C119.302 137.316 119.111 136.694 118.65 135.951C118.19 135.207 117.715 134.754 117.226 134.593C116.734 134.446 116.152 134.58 115.481 134.996Z" fill="#111111"/>
<path d="M107.17 137.718L111.668 144.143L110.032 144.746L106.893 140.02L107.084 144.843L107.404 145.714L106.158 146.173L102.704 141.563L103.381 147.196L101.759 147.793L100.999 139.991L102.546 139.422L105.777 143.517L105.609 138.293L107.17 137.718Z" fill="#111111"/>
</svg>
