<svg width="129" height="114" viewBox="0 0 129 114" fill="none" xmlns="http://www.w3.org/2000/svg">
<g opacity="0.35">
<path fill-rule="evenodd" clip-rule="evenodd" d="M121.242 26.7788C124.074 24.5516 124.915 22.6671 124.915 21.2816C124.915 19.896 124.074 18.0116 121.242 15.7844C118.45 13.5887 114.19 11.4562 108.609 9.59974C97.4839 5.89911 81.8888 3.54937 64.5001 3.54937C47.1114 3.54937 31.5164 5.89911 20.3915 9.59974C14.8104 11.4562 10.5503 13.5887 7.7584 15.7844C4.92646 18.0116 4.08554 19.896 4.08554 21.2816C4.08554 22.6671 4.92646 24.5516 7.7584 26.7788C10.5503 28.9744 14.8104 31.1069 20.3915 32.9634C31.5164 36.664 47.1114 39.0138 64.5001 39.0138C81.8888 39.0138 97.4839 36.664 108.609 32.9634C114.19 31.1069 118.45 28.9744 121.242 26.7788ZM64.5001 42.5602C99.8289 42.5602 128.469 33.0334 128.469 21.2816C128.469 9.5297 99.8289 0.00292969 64.5001 0.00292969C29.1714 0.00292969 0.531738 9.5297 0.531738 21.2816C0.531738 33.0334 29.1714 42.5602 64.5001 42.5602Z" fill="url(#paint0_linear_38045_1891)"/>
<path fill-rule="evenodd" clip-rule="evenodd" d="M121.242 40.9645C124.074 38.7373 124.915 36.8529 124.915 35.4673C124.915 34.0817 124.074 32.1973 121.242 29.9701C118.45 27.7744 114.19 25.642 108.609 23.7855C97.4839 20.0849 81.8888 17.7351 64.5001 17.7351C47.1114 17.7351 31.5164 20.0849 20.3915 23.7855C14.8104 25.642 10.5503 27.7744 7.7584 29.9701C4.92646 32.1973 4.08554 34.0817 4.08554 35.4673C4.08554 36.8529 4.92646 38.7373 7.7584 40.9645C10.5503 43.1602 14.8104 45.2926 20.3915 47.1491C31.5164 50.8498 47.1114 53.1995 64.5001 53.1995C81.8888 53.1995 97.4839 50.8498 108.609 47.1491C114.19 45.2926 118.45 43.1602 121.242 40.9645ZM64.5001 56.7459C99.8289 56.7459 128.469 47.2192 128.469 35.4673C128.469 23.7155 99.8289 14.1887 64.5001 14.1887C29.1714 14.1887 0.531738 23.7155 0.531738 35.4673C0.531738 47.2192 29.1714 56.7459 64.5001 56.7459Z" fill="url(#paint1_linear_38045_1891)"/>
<path fill-rule="evenodd" clip-rule="evenodd" d="M121.242 55.1503C124.074 52.9231 124.915 51.0386 124.915 49.6531C124.915 48.2675 124.074 46.3831 121.242 44.1559C118.45 41.9602 114.19 39.8277 108.609 37.9713C97.4839 34.2706 81.8888 31.9209 64.5001 31.9209C47.1114 31.9209 31.5164 34.2706 20.3915 37.9713C14.8104 39.8277 10.5503 41.9602 7.7584 44.1559C4.92646 46.3831 4.08554 48.2675 4.08554 49.6531C4.08554 51.0386 4.92646 52.9231 7.7584 55.1503C10.5503 57.3459 14.8104 59.4784 20.3915 61.3349C31.5164 65.0355 47.1114 67.3853 64.5001 67.3853C81.8888 67.3853 97.4839 65.0355 108.609 61.3349C114.19 59.4784 118.45 57.3459 121.242 55.1503ZM64.5001 70.9317C99.8289 70.9317 128.469 61.4049 128.469 49.6531C128.469 37.9012 99.8289 28.3744 64.5001 28.3744C29.1714 28.3744 0.531738 37.9012 0.531738 49.6531C0.531738 61.4049 29.1714 70.9317 64.5001 70.9317Z" fill="url(#paint2_linear_38045_1891)"/>
<path fill-rule="evenodd" clip-rule="evenodd" d="M121.242 69.336C124.074 67.1088 124.915 65.2244 124.915 63.8388C124.915 62.4532 124.074 60.5688 121.242 58.3416C118.45 56.1459 114.19 54.0135 108.609 52.157C97.4839 48.4564 81.8888 46.1066 64.5001 46.1066C47.1114 46.1066 31.5164 48.4564 20.3915 52.157C14.8104 54.0135 10.5503 56.1459 7.7584 58.3416C4.92646 60.5688 4.08554 62.4532 4.08554 63.8388C4.08554 65.2244 4.92646 67.1088 7.7584 69.336C10.5503 71.5317 14.8104 73.6641 20.3915 75.5206C31.5164 79.2213 47.1114 81.571 64.5001 81.571C81.8888 81.571 97.4839 79.2213 108.609 75.5206C114.19 73.6641 118.45 71.5317 121.242 69.336ZM64.5001 85.1175C99.8289 85.1175 128.469 75.5907 128.469 63.8388C128.469 52.087 99.8289 42.5602 64.5001 42.5602C29.1714 42.5602 0.531738 52.087 0.531738 63.8388C0.531738 75.5907 29.1714 85.1175 64.5001 85.1175Z" fill="url(#paint3_linear_38045_1891)"/>
<path fill-rule="evenodd" clip-rule="evenodd" d="M121.242 83.5218C124.074 81.2946 124.915 79.4102 124.915 78.0246C124.915 76.639 124.074 74.7546 121.242 72.5274C118.45 70.3317 114.19 68.1993 108.609 66.3428C97.4839 62.6421 81.8888 60.2924 64.5001 60.2924C47.1114 60.2924 31.5164 62.6421 20.3915 66.3428C14.8104 68.1993 10.5503 70.3317 7.7584 72.5274C4.92646 74.7546 4.08554 76.639 4.08554 78.0246C4.08554 79.4102 4.92646 81.2946 7.7584 83.5218C10.5503 85.7175 14.8104 87.8499 20.3915 89.7064C31.5164 93.407 47.1114 95.7568 64.5001 95.7568C81.8888 95.7568 97.4839 93.407 108.609 89.7064C114.19 87.8499 118.45 85.7175 121.242 83.5218ZM64.5001 99.3032C99.8289 99.3032 128.469 89.7764 128.469 78.0246C128.469 66.2727 99.8289 56.7459 64.5001 56.7459C29.1714 56.7459 0.531738 66.2727 0.531738 78.0246C0.531738 89.7764 29.1714 99.3032 64.5001 99.3032Z" fill="url(#paint4_linear_38045_1891)"/>
<path fill-rule="evenodd" clip-rule="evenodd" d="M121.242 97.7075C124.074 95.4803 124.915 93.5959 124.915 92.2103C124.915 90.8248 124.074 88.9403 121.242 86.7131C118.45 84.5175 114.19 82.385 108.609 80.5285C97.4839 76.8279 81.8888 74.4781 64.5001 74.4781C47.1114 74.4781 31.5164 76.8279 20.3915 80.5285C14.8104 82.385 10.5503 84.5175 7.7584 86.7131C4.92646 88.9403 4.08554 90.8248 4.08554 92.2103C4.08554 93.5959 4.92646 95.4803 7.7584 97.7075C10.5503 99.9032 14.8104 102.036 20.3915 103.892C31.5164 107.593 47.1114 109.943 64.5001 109.943C81.8888 109.943 97.4839 107.593 108.609 103.892C114.19 102.036 118.45 99.9032 121.242 97.7075ZM64.5001 113.489C99.8289 113.489 128.469 103.962 128.469 92.2103C128.469 80.4585 99.8289 70.9317 64.5001 70.9317C29.1714 70.9317 0.531738 80.4585 0.531738 92.2103C0.531738 103.962 29.1714 113.489 64.5001 113.489Z" fill="url(#paint5_linear_38045_1891)"/>
</g>
<defs>
<linearGradient id="paint0_linear_38045_1891" x1="74.0863" y1="1.97328" x2="74.2739" y2="90.5902" gradientUnits="userSpaceOnUse">
<stop stop-color="#C8F168"/>
<stop offset="1" stop-color="#C8F168" stop-opacity="0.07"/>
</linearGradient>
<linearGradient id="paint1_linear_38045_1891" x1="74.0863" y1="1.97328" x2="74.2739" y2="90.5902" gradientUnits="userSpaceOnUse">
<stop stop-color="#C8F168"/>
<stop offset="1" stop-color="#C8F168" stop-opacity="0.07"/>
</linearGradient>
<linearGradient id="paint2_linear_38045_1891" x1="74.0863" y1="1.97328" x2="74.2739" y2="90.5902" gradientUnits="userSpaceOnUse">
<stop stop-color="#C8F168"/>
<stop offset="1" stop-color="#C8F168" stop-opacity="0.07"/>
</linearGradient>
<linearGradient id="paint3_linear_38045_1891" x1="74.0863" y1="1.97328" x2="74.2739" y2="90.5902" gradientUnits="userSpaceOnUse">
<stop stop-color="#C8F168"/>
<stop offset="1" stop-color="#C8F168" stop-opacity="0.07"/>
</linearGradient>
<linearGradient id="paint4_linear_38045_1891" x1="74.0863" y1="1.97328" x2="74.2739" y2="90.5902" gradientUnits="userSpaceOnUse">
<stop stop-color="#C8F168"/>
<stop offset="1" stop-color="#C8F168" stop-opacity="0.07"/>
</linearGradient>
<linearGradient id="paint5_linear_38045_1891" x1="74.0863" y1="1.97328" x2="74.2739" y2="90.5902" gradientUnits="userSpaceOnUse">
<stop stop-color="#C8F168"/>
<stop offset="1" stop-color="#C8F168" stop-opacity="0.07"/>
</linearGradient>
</defs>
</svg>
