<svg width="40" height="41" viewBox="0 0 40 41" fill="none" xmlns="http://www.w3.org/2000/svg">
<path d="M20 4.25C16.7861 4.25 13.6443 5.20305 10.972 6.98862C8.29969 8.77419 6.21689 11.3121 4.98696 14.2814C3.75704 17.2507 3.43524 20.518 4.06225 23.6702C4.68926 26.8224 6.23692 29.7179 8.50952 31.9905C10.7821 34.2631 13.6776 35.8108 16.8298 36.4378C19.982 37.0648 23.2493 36.743 26.2186 35.513C29.1879 34.2831 31.7258 32.2003 33.5114 29.528C35.297 26.8557 36.25 23.7139 36.25 20.5C36.2455 16.1916 34.5319 12.061 31.4855 9.01454C28.439 5.96806 24.3084 4.25455 20 4.25ZM20 30.5C19.6292 30.5 19.2667 30.39 18.9583 30.184C18.65 29.978 18.4096 29.6851 18.2677 29.3425C18.1258 28.9999 18.0887 28.6229 18.161 28.2592C18.2334 27.8955 18.412 27.5614 18.6742 27.2992C18.9364 27.037 19.2705 26.8584 19.6342 26.786C19.9979 26.7137 20.3749 26.7508 20.7175 26.8927C21.0601 27.0346 21.353 27.275 21.559 27.5833C21.765 27.8916 21.875 28.2542 21.875 28.625C21.875 29.1223 21.6775 29.5992 21.3258 29.9508C20.9742 30.3025 20.4973 30.5 20 30.5ZM21.25 22.8875V23C21.25 23.3315 21.1183 23.6495 20.8839 23.8839C20.6495 24.1183 20.3315 24.25 20 24.25C19.6685 24.25 19.3505 24.1183 19.1161 23.8839C18.8817 23.6495 18.75 23.3315 18.75 23V21.75C18.75 21.4185 18.8817 21.1005 19.1161 20.8661C19.3505 20.6317 19.6685 20.5 20 20.5C22.0672 20.5 23.75 19.0938 23.75 17.375C23.75 15.6562 22.0672 14.25 20 14.25C17.9328 14.25 16.25 15.6562 16.25 17.375V18C16.25 18.3315 16.1183 18.6495 15.8839 18.8839C15.6495 19.1183 15.3315 19.25 15 19.25C14.6685 19.25 14.3505 19.1183 14.1161 18.8839C13.8817 18.6495 13.75 18.3315 13.75 18V17.375C13.75 14.2734 16.5531 11.75 20 11.75C23.4469 11.75 26.25 14.2734 26.25 17.375C26.25 20.0906 24.1 22.3641 21.25 22.8875Z" fill="#043F2E"/>
</svg>
