<svg width="209" height="48" viewBox="0 0 209 48" fill="none" xmlns="http://www.w3.org/2000/svg">
<path fill-rule="evenodd" clip-rule="evenodd" d="M24 48C37.2548 48 48 37.2548 48 24C48 10.7452 37.2548 0 24 0C10.7452 0 0 10.7452 0 24C0 37.2548 10.7452 48 24 48ZM24 47C33.3888 47 41 39.3888 41 30C41 20.6112 33.3888 13 24 13C14.6112 13 7 20.6112 7 30C7 39.3888 14.6112 47 24 47Z" fill="#C8F168"/>
<circle cx="24" cy="33" r="13" fill="white"/>
<path d="M67.808 36L60.544 13.408H65.536L70.848 30.784H68.896L74.08 13.408H78.016L83.2 30.784H81.28L86.56 13.408H91.52L84.256 36H80.32L75.104 18.624H76.96L71.744 36H67.808ZM98.2865 36.32C96.8572 36.32 95.5772 35.968 94.4465 35.264C93.3372 34.56 92.4518 33.6 91.7905 32.384C91.1505 31.168 90.8305 29.7813 90.8305 28.224C90.8305 26.6667 91.1505 25.28 91.7905 24.064C92.4518 22.848 93.3372 21.888 94.4465 21.184C95.5772 20.48 96.8572 20.128 98.2865 20.128C99.3318 20.128 100.271 20.3307 101.103 20.736C101.956 21.1413 102.649 21.7067 103.183 22.432C103.716 23.136 104.015 23.9467 104.079 24.864V31.584C104.015 32.5013 103.716 33.3227 103.183 34.048C102.671 34.752 101.988 35.3067 101.135 35.712C100.281 36.1173 99.3318 36.32 98.2865 36.32ZM99.2785 31.904C100.324 31.904 101.167 31.5627 101.807 30.88C102.447 30.176 102.767 29.2907 102.767 28.224C102.767 27.4987 102.617 26.8587 102.319 26.304C102.041 25.7493 101.636 25.3227 101.103 25.024C100.591 24.704 99.9932 24.544 99.3105 24.544C98.6278 24.544 98.0198 24.704 97.4865 25.024C96.9745 25.3227 96.5585 25.7493 96.2385 26.304C95.9398 26.8587 95.7905 27.4987 95.7905 28.224C95.7905 28.928 95.9398 29.5573 96.2385 30.112C96.5372 30.6667 96.9532 31.104 97.4865 31.424C98.0198 31.744 98.6172 31.904 99.2785 31.904ZM102.575 36V31.808L103.311 28.032L102.575 24.256V20.448H107.375V36H102.575ZM116.486 36.384C115.568 36.384 114.662 36.2667 113.766 36.032C112.891 35.7973 112.07 35.4667 111.302 35.04C110.555 34.592 109.915 34.08 109.382 33.504L112.166 30.688C112.678 31.2427 113.286 31.68 113.99 32C114.694 32.2987 115.462 32.448 116.294 32.448C116.87 32.448 117.307 32.3627 117.606 32.192C117.926 32.0213 118.086 31.7867 118.086 31.488C118.086 31.104 117.894 30.816 117.51 30.624C117.147 30.4107 116.678 30.2293 116.102 30.08C115.526 29.9093 114.918 29.728 114.278 29.536C113.638 29.344 113.03 29.0773 112.454 28.736C111.878 28.3947 111.408 27.9253 111.046 27.328C110.683 26.7093 110.502 25.9307 110.502 24.992C110.502 23.9893 110.758 23.1253 111.27 22.4C111.782 21.6533 112.507 21.0667 113.446 20.64C114.384 20.2133 115.483 20 116.742 20C118.064 20 119.28 20.2347 120.39 20.704C121.52 21.152 122.438 21.824 123.142 22.72L120.358 25.536C119.867 24.96 119.312 24.5547 118.694 24.32C118.096 24.0853 117.51 23.968 116.934 23.968C116.379 23.968 115.963 24.0533 115.686 24.224C115.408 24.3733 115.27 24.5973 115.27 24.896C115.27 25.216 115.451 25.472 115.814 25.664C116.176 25.856 116.646 26.0267 117.222 26.176C117.798 26.3253 118.406 26.5067 119.046 26.72C119.686 26.9333 120.294 27.2213 120.87 27.584C121.446 27.9467 121.915 28.4373 122.278 29.056C122.64 29.6533 122.822 30.4427 122.822 31.424C122.822 32.9387 122.246 34.144 121.094 35.04C119.963 35.936 118.427 36.384 116.486 36.384ZM127.686 36V14.016H132.582V36H127.686ZM124.166 24.608V20.448H136.102V24.608H124.166ZM145.627 36.352C143.941 36.352 142.437 36.0107 141.115 35.328C139.813 34.624 138.789 33.6533 138.043 32.416C137.296 31.1787 136.923 29.7813 136.923 28.224C136.923 26.6667 137.285 25.28 138.011 24.064C138.757 22.8267 139.76 21.856 141.019 21.152C142.277 20.448 143.696 20.096 145.275 20.096C146.811 20.096 148.165 20.4267 149.339 21.088C150.512 21.7493 151.429 22.6667 152.091 23.84C152.773 25.0133 153.115 26.3573 153.115 27.872C153.115 28.1493 153.093 28.448 153.051 28.768C153.029 29.0667 152.976 29.4187 152.891 29.824L139.483 29.856V26.496L150.811 26.464L148.699 27.872C148.677 26.976 148.539 26.24 148.283 25.664C148.027 25.0667 147.643 24.6187 147.131 24.32C146.64 24 146.032 23.84 145.307 23.84C144.539 23.84 143.867 24.0213 143.291 24.384C142.736 24.7253 142.299 25.216 141.979 25.856C141.68 26.496 141.531 27.2747 141.531 28.192C141.531 29.1093 141.691 29.8987 142.011 30.56C142.352 31.2 142.821 31.7013 143.419 32.064C144.037 32.4053 144.763 32.576 145.595 32.576C146.363 32.576 147.056 32.448 147.675 32.192C148.293 31.9147 148.837 31.5093 149.307 30.976L151.995 33.664C151.227 34.56 150.299 35.232 149.211 35.68C148.123 36.128 146.928 36.352 145.627 36.352Z" fill="white"/>
<path d="M155.926 36V13.408H159.446L160.95 17.92V36H155.926ZM171.51 36L158.198 18.944L159.446 13.408L172.758 30.464L171.51 36ZM171.51 36L170.166 31.488V13.408H175.19V36H171.51ZM186.591 36.352C184.991 36.352 183.54 36 182.239 35.296C180.959 34.5707 179.946 33.5893 179.199 32.352C178.452 31.1147 178.079 29.728 178.079 28.192C178.079 26.656 178.452 25.28 179.199 24.064C179.946 22.848 180.959 21.888 182.239 21.184C183.519 20.4587 184.97 20.096 186.591 20.096C188.212 20.096 189.663 20.448 190.943 21.152C192.223 21.856 193.236 22.8267 193.983 24.064C194.73 25.28 195.103 26.656 195.103 28.192C195.103 29.728 194.73 31.1147 193.983 32.352C193.236 33.5893 192.223 34.5707 190.943 35.296C189.663 36 188.212 36.352 186.591 36.352ZM186.591 31.904C187.295 31.904 187.914 31.7547 188.447 31.456C188.98 31.136 189.386 30.6987 189.663 30.144C189.962 29.568 190.111 28.9173 190.111 28.192C190.111 27.4667 189.962 26.8373 189.663 26.304C189.364 25.7493 188.948 25.3227 188.415 25.024C187.903 24.704 187.295 24.544 186.591 24.544C185.908 24.544 185.3 24.704 184.767 25.024C184.234 25.3227 183.818 25.7493 183.519 26.304C183.22 26.8587 183.071 27.4987 183.071 28.224C183.071 28.928 183.22 29.568 183.519 30.144C183.818 30.6987 184.234 31.136 184.767 31.456C185.3 31.7547 185.908 31.904 186.591 31.904ZM199.436 36V14.016H204.332V36H199.436ZM195.916 24.608V20.448H207.852V24.608H195.916Z" fill="#F74F22"/>
</svg>
